<svg width="48" height="49" viewBox="0 0 48 49" fill="currentColor" xmlns="http://www.w3.org/2000/svg">
<g clip-path="url(#clip0_72_757)">
<path d="M42.7061 32.4708C43.6428 30.283 44.2005 27.9578 44.4237 25.5826L47.9136 25.7818C48.034 25.8654 47.9968 26.2751 47.9872 26.427C47.9295 27.3595 47.6759 28.5871 47.4691 29.5105C47.1382 30.9872 46.65 32.4558 46.025 33.8334L42.7061 32.4708Z"/>
<path d="M15.8067 42.8872L14.4077 46.2458C12.4832 45.4115 10.5151 44.2939 8.89336 42.9576C8.73154 42.8244 8.12793 42.3575 8.12793 42.1993C8.12793 42.0228 10.1715 39.845 10.4919 39.5945C12.1319 40.8816 13.8391 42.1415 15.8072 42.8872H15.8067Z"/>
<path d="M5.08753 16.1433C4.32665 18.1539 3.75986 20.2317 3.56759 22.3841L0 21.989C0.195902 19.5374 0.774062 17.0981 1.76357 14.8494L5.08753 16.1438V16.1433Z"/>
<path d="M37.3308 8.44224C37.1327 8.55727 36.1695 7.67658 35.9282 7.5079C34.6196 6.59357 33.2387 5.81792 31.7751 5.1732L33.1083 1.89417C34.9082 2.53979 36.7081 3.5696 38.2494 4.70581C38.4313 4.83993 39.408 5.5583 39.468 5.6506C39.5235 5.73653 39.5239 5.80791 39.4667 5.89157L37.3313 8.44224H37.3308Z"/>
<path d="M44.5369 11.5062C45.7359 13.6313 46.7836 15.8619 47.3354 18.2534L47.0463 18.4399L43.8769 19.1882C43.3001 17.1491 42.5083 15.1963 41.4238 13.374L41.5056 13.2189L44.1669 11.5571L44.5369 11.5062Z"/>
<path d="M28.3761 44.162L29.0897 47.6729C26.6848 48.2067 24.1399 48.4413 21.6909 48.0885L22.0514 44.5953C23.2804 44.5689 24.4585 44.6648 25.6976 44.5598C26.6003 44.483 27.4843 44.307 28.3761 44.162Z"/>
<path d="M39.2359 37.8445C39.5904 38.0509 41.9308 40.0887 41.8999 40.2669C40.2299 42.1015 38.2914 43.6533 36.1828 44.9532L34.3179 41.8783C36.1051 40.7121 37.7691 39.3985 39.2359 37.8445Z"/>
<path d="M8.59777 10.6842L8.21369 10.5714L5.73242 8.41356C7.37372 6.52625 9.27092 4.82535 11.4536 3.58093L13.318 6.57262C12.3599 7.34828 11.2931 7.98936 10.37 8.8123C9.75727 9.35881 9.10684 10.0535 8.59777 10.6832V10.6842Z"/>
<path d="M0.532715 29.5163L3.97122 28.7416C4.58483 30.7412 5.19936 32.7694 6.35931 34.5285L6.33613 34.634L3.24579 36.4395C2.01857 34.2862 0.968607 31.9747 0.532715 29.5163Z"/>
<path d="M19.1756 4.21111L18.3743 0.688829C19.7251 0.416485 21.1151 0.124591 22.4973 0.0482075C23.2941 0.00410511 24.6063 -0.033632 25.3776 0.0477529C25.5476 0.0654848 25.7217 0.101858 25.864 0.202793C25.7072 1.34946 25.7772 2.58432 25.5031 3.69552C24.6663 3.67415 23.8172 3.60641 22.9777 3.65097C21.7019 3.71871 20.426 3.98151 19.1756 4.21111Z"/>
<path d="M23.8967 6.38672C14.0607 6.38672 6.0874 14.3624 6.0874 24.2014C6.0874 34.0403 14.0607 42.016 23.8967 42.016C33.7327 42.016 41.7061 34.0403 41.7061 24.2014C41.7061 14.3624 33.7327 6.38672 23.8967 6.38672ZM30.0638 28.3647C29.7229 29.1013 29.2729 29.7287 28.7138 30.247C28.1547 30.7658 27.4998 31.1609 26.7503 31.4337C26.0003 31.7065 25.1753 31.8429 24.2754 31.8429C23.1572 31.8429 22.1513 31.6483 21.2582 31.2596C20.365 30.8708 19.6119 30.3357 18.9983 29.6532C18.3847 28.9713 17.9142 28.1701 17.587 27.249C17.2597 26.3283 17.0961 25.3358 17.0961 24.2723C17.0961 23.2088 17.2597 22.1686 17.587 21.2338C17.9142 20.2999 18.3847 19.4847 18.9983 18.7886C19.6119 18.093 20.365 17.5478 21.2582 17.1518C22.1513 16.7562 23.1568 16.5585 24.2754 16.5585C25.0799 16.5585 25.8403 16.6744 26.5562 16.9063C27.2721 17.1382 27.9129 17.476 28.4788 17.9188C29.0447 18.3621 29.512 18.9114 29.8801 19.5661C30.2483 20.2208 30.4801 20.971 30.5756 21.8167H27.4666C27.4121 21.4484 27.2893 21.1106 27.0984 20.8037C26.9075 20.4968 26.6689 20.2276 26.3825 19.9957C26.0962 19.7638 25.7721 19.5833 25.4108 19.4533C25.0494 19.3237 24.6708 19.2592 24.2754 19.2592C23.5527 19.2592 22.939 19.3992 22.4345 19.6784C21.93 19.958 21.5209 20.3331 21.2073 20.8037C20.8937 21.2742 20.6655 21.8098 20.5223 22.41C20.3791 23.0106 20.3073 23.6308 20.3073 24.2718C20.3073 24.9129 20.3791 25.4826 20.5223 26.0623C20.6655 26.642 20.8937 27.164 21.2073 27.6273C21.5209 28.091 21.93 28.4629 22.4345 28.7426C22.939 29.0222 23.5527 29.1618 24.2754 29.1618C25.2571 29.1618 26.0244 28.8617 26.5762 28.2615C27.1284 27.6614 27.4661 26.8702 27.5889 25.8882H30.6978C30.616 26.802 30.4047 27.6273 30.0638 28.3638V28.3647Z"/>
</g>
<defs>
<clipPath id="clip0_72_757">
<rect width="48" height="48.2567" fill="white"/>
</clipPath>
</defs>
</svg>

